<?xml version="1.0" encoding="UTF-8"?>
<svg id="a" data-name="Layer 3" xmlns="http://www.w3.org/2000/svg" width="2716.512" height="975.81" viewBox="0 0 2716.512 975.81">
  <g id="b" data-name="Layer 1">
    <g>
      <rect width="2716.512" height="975.81" fill="#d4ff00"/>
      <g>
        <polygon points="520.859 221.42 545.054 343.217 570.253 221.42 832.718 221.42 832.718 484.321 708.731 508.485 832.718 532.649 832.718 795.55 570.253 795.55 545.072 671.813 520.859 795.55 257.426 795.55 257.426 532.649 381.413 508.485 257.426 484.321 257.426 221.42 520.859 221.42"/>
        <g>
          <g>
            <polygon points="1228.362 244.015 1234.977 415.236 1258.766 244.009 1300.311 244.009 1326.523 415.259 1332.297 244.015 1383.44 244.015 1361.127 477.781 1295.996 477.817 1278.696 336.207 1264.663 477.817 1196.92 477.781 1175.57 244.015 1228.362 244.015"/>
            <path d="M1677.098,532.14v79.029c23.049-18.914,49.7-26.193,78.825-16.925,58.452,18.601,72.689,101.614,43.538,149.742-27.033,44.632-82.501,54.426-121.538,18.684l-2.475,18.081h-49.493v-248.611h51.143ZM1711.34,633.007c-13.911,1.89-28.771,14.584-32.956,28.015-2.198,7.054-2.442,40.052-1.189,48.012,2.075,13.189,18.734,30.236,32.216,32.06,71.027,9.613,68.829-117.176,1.929-108.087Z"/>
            <path d="M1533.568,477.808l-.016-18.11c-5.709,4.626-9.174,7.817-16.669,12.162-47.467,27.515-121.311-2.338-102.618-64.543,6.611-21.999,38.701-41.466,60.736-41.466h56.917c.094-14.229,2.606-27.1-10.992-35.954-13.747-8.951-45.809-7.798-57.55,4.595-4.269,4.506-5.611,6.456-8.172,14.895h-48.668c3.227-37.943,35.884-55.863,70.319-60.714,47.128-6.64,107.856,9.042,107.856,66.477v122.632l-51.143.026ZM1531.919,400.426h-38.201c-9.499.322-13.299,2.007-14.651,2.41-23.493,7.009-21.21,35.038,2.449,37.184,23.414,2.124,55.51-11.798,50.403-39.594Z"/>
            <path d="M1533.568,780.751l-.817-18.103c-37.842,37.741-123.139,26.839-121.322-36.965.879-30.859,33.901-56.889,63.573-56.889h56.917c.094-14.233,2.606-27.096-10.992-35.954-14.164-9.226-45.497-8.127-57.551,4.595-4.269,4.506-5.34,7.812-8.172,14.895h-48.668c1.092-18.996,12.014-35.508,27.53-45.792,41.399-27.437,137.098-23.824,148.26,35.823.661,3.532,2.385,14.834,2.385,17.377v120.899l-51.143.113ZM1531.927,703.36c-15.934.881-57.295-3.943-66.705,11.652-6.347,10.518-.255,25.036,11.804,27.498,23.705,4.84,59.407-10.21,54.901-39.15Z"/>
            <path d="M2459.086,477.808h-51.143v-121.013c0-9.375-5.54-15.664-9.008-19-18.847-18.128-46.014-.712-59.12,18.046-2.928,4.19-4.462,9.194-4.462,14.306v107.634h-52.792v-186.02h51.143l.016,19.757c34.605-35.198,101.768-33.581,120.73,16.976.984,2.623,4.637,15.017,4.637,16.776v132.538Z"/>
            <path d="M2016.95,652.329h-47.843c.277-26.291-49.368-33.001-60.07-14.681-14.847,25.415,41.428,28.236,55.46,31.629,37.022,8.953,62.95,25.934,55.006,68.745-2.372,12.783-10.661,23.262-21.201,30.511-11.976,8.237-26.359,12.698-40.649,14.706-15.541,2.183-31.591,1.517-46.861-2.141-15.438-3.698-30.507-10.611-41.767-22.022-4.168-4.225-7.83-8.969-10.689-14.176-5.416-9.863-7.437-20.58-5.538-31.653h46.842l-.058,1.36c-.04.935-.057,1.872-.004,2.806,1.426,25.36,25.137,30.894,47.241,28.749,23.376-2.269,32.101-22.781,6.242-32.543-29.797-11.248-92.099-11.48-97.652-54.017-11.887-91.052,156.885-92.885,161.54-7.272Z"/>
            <polygon points="1741.439 232.484 1741.439 435.001 1802.48 435.001 1802.48 477.808 1629.255 477.808 1629.255 435.001 1690.296 435.001 1690.296 275.291 1652.352 275.291 1652.395 232.484 1741.439 232.484"/>
            <polygon points="1959.208 232.484 1959.208 435.001 2021.899 435.001 2021.899 477.781 1847.023 477.808 1847.024 435.001 1908.065 435.001 1908.065 275.291 1871.77 275.291 1871.77 232.484 1959.208 232.484"/>
            <polygon points="1253.108 546.958 1253.108 734.651 1366.942 734.651 1366.942 780.751 1198.666 780.751 1198.666 546.958 1253.108 546.958"/>
            <polygon points="2178.626 306.573 2178.626 435.001 2239.668 435.001 2239.668 477.808 2066.442 477.808 2066.442 435.001 2125.834 435.001 2125.834 347.734 2089.539 347.734 2089.539 306.573 2178.626 306.573"/>
          </g>
          <rect x="2124.184" y="232.484" width="56.092" height="47.746"/>
        </g>
      </g>
    </g>
  </g>
</svg>